<mxfile host="Electron" agent="Mozilla/5.0 (Windows NT 10.0; Win64; x64) AppleWebKit/537.36 (KHTML, like Gecko) draw.io/26.2.2 Chrome/134.0.6998.178 Electron/35.1.2 Safari/537.36" version="26.2.2">
  <diagram name="Pagina-1" id="4gsVBZLQGgU6mNu1WO3A">
    <mxGraphModel dx="1428" dy="841" grid="1" gridSize="10" guides="1" tooltips="1" connect="1" arrows="1" fold="1" page="1" pageScale="1" pageWidth="827" pageHeight="1169" math="1" shadow="0">
      <root>
        <mxCell id="0" />
        <mxCell id="1" parent="0" />
        <mxCell id="7OB6KW-R-vqI7Hbg_jRt-38" value="$$\mathbf{v}$$" style="text;html=1;align=center;verticalAlign=middle;resizable=0;points=[];autosize=1;strokeColor=none;fillColor=none;rotation=-20;" parent="1" vertex="1">
          <mxGeometry x="185" y="420" width="100" height="30" as="geometry" />
        </mxCell>
        <mxCell id="7OB6KW-R-vqI7Hbg_jRt-21" value="$$\text{beam splitter}$$" style="text;html=1;align=center;verticalAlign=middle;resizable=0;points=[];autosize=1;strokeColor=none;fillColor=none;fontColor=#007FFF;" parent="1" vertex="1">
          <mxGeometry x="390" y="290" width="150" height="30" as="geometry" />
        </mxCell>
        <mxCell id="7OB6KW-R-vqI7Hbg_jRt-1" value="" style="rounded=0;whiteSpace=wrap;html=1;" parent="1" vertex="1">
          <mxGeometry x="170" y="330" width="80" height="30" as="geometry" />
        </mxCell>
        <mxCell id="7OB6KW-R-vqI7Hbg_jRt-2" value="" style="endArrow=none;html=1;rounded=0;fontColor=#FF0000;strokeColor=#FF0000;" parent="1" source="7OB6KW-R-vqI7Hbg_jRt-8" edge="1">
          <mxGeometry width="50" height="50" relative="1" as="geometry">
            <mxPoint x="250" y="344.76" as="sourcePoint" />
            <mxPoint x="400" y="344.76" as="targetPoint" />
          </mxGeometry>
        </mxCell>
        <mxCell id="7OB6KW-R-vqI7Hbg_jRt-4" value="" style="endArrow=none;html=1;rounded=0;" parent="1" edge="1">
          <mxGeometry width="50" height="50" relative="1" as="geometry">
            <mxPoint x="403" y="341.76" as="sourcePoint" />
            <mxPoint x="553" y="341.76" as="targetPoint" />
          </mxGeometry>
        </mxCell>
        <mxCell id="7OB6KW-R-vqI7Hbg_jRt-7" value="" style="endArrow=none;html=1;rounded=0;" parent="1" edge="1">
          <mxGeometry width="50" height="50" relative="1" as="geometry">
            <mxPoint x="403" y="341.5" as="sourcePoint" />
            <mxPoint x="402" y="191.5" as="targetPoint" />
          </mxGeometry>
        </mxCell>
        <mxCell id="7OB6KW-R-vqI7Hbg_jRt-9" value="" style="endArrow=none;html=1;rounded=0;fontColor=#FF0000;strokeColor=#FF0000;" parent="1" target="7OB6KW-R-vqI7Hbg_jRt-8" edge="1">
          <mxGeometry width="50" height="50" relative="1" as="geometry">
            <mxPoint x="250" y="344.76" as="sourcePoint" />
            <mxPoint x="400" y="344.76" as="targetPoint" />
          </mxGeometry>
        </mxCell>
        <mxCell id="7OB6KW-R-vqI7Hbg_jRt-8" value="" style="triangle;whiteSpace=wrap;html=1;fillColor=#FF0000;fontColor=#FF0000;strokeColor=#FF0000;" parent="1" vertex="1">
          <mxGeometry x="290" y="342.5" width="5" height="5" as="geometry" />
        </mxCell>
        <mxCell id="7OB6KW-R-vqI7Hbg_jRt-10" value="" style="triangle;whiteSpace=wrap;html=1;fillColor=#000000;" parent="1" vertex="1">
          <mxGeometry x="430" y="339.5" width="5" height="5" as="geometry" />
        </mxCell>
        <mxCell id="7OB6KW-R-vqI7Hbg_jRt-16" value="" style="triangle;whiteSpace=wrap;html=1;fillColor=#000000;rotation=-90;" parent="1" vertex="1">
          <mxGeometry x="400.4" y="310" width="5" height="5" as="geometry" />
        </mxCell>
        <mxCell id="7OB6KW-R-vqI7Hbg_jRt-17" value="" style="endArrow=none;html=1;rounded=0;" parent="1" edge="1">
          <mxGeometry width="50" height="50" relative="1" as="geometry">
            <mxPoint x="371.9" y="191" as="sourcePoint" />
            <mxPoint x="431.9" y="191" as="targetPoint" />
          </mxGeometry>
        </mxCell>
        <mxCell id="7OB6KW-R-vqI7Hbg_jRt-18" value="" style="endArrow=none;html=1;rounded=0;" parent="1" edge="1">
          <mxGeometry width="50" height="50" relative="1" as="geometry">
            <mxPoint x="553" y="317" as="sourcePoint" />
            <mxPoint x="553" y="367" as="targetPoint" />
          </mxGeometry>
        </mxCell>
        <mxCell id="7OB6KW-R-vqI7Hbg_jRt-19" value="" style="endArrow=none;html=1;rounded=0;dashed=1;strokeColor=#FF9933;" parent="1" edge="1">
          <mxGeometry width="50" height="50" relative="1" as="geometry">
            <mxPoint x="399" y="345" as="sourcePoint" />
            <mxPoint x="398" y="191" as="targetPoint" />
          </mxGeometry>
        </mxCell>
        <mxCell id="7OB6KW-R-vqI7Hbg_jRt-20" value="" style="endArrow=none;html=1;rounded=0;dashed=1;strokeColor=#FF9933;" parent="1" edge="1">
          <mxGeometry width="50" height="50" relative="1" as="geometry">
            <mxPoint x="399" y="345.5" as="sourcePoint" />
            <mxPoint x="553" y="345.5" as="targetPoint" />
          </mxGeometry>
        </mxCell>
        <mxCell id="7OB6KW-R-vqI7Hbg_jRt-22" value="" style="endArrow=none;html=1;rounded=0;strokeColor=#FF9933;" parent="1" source="7OB6KW-R-vqI7Hbg_jRt-34" edge="1">
          <mxGeometry width="50" height="50" relative="1" as="geometry">
            <mxPoint x="399.79999999999995" y="493" as="sourcePoint" />
            <mxPoint x="399.4" y="345.5" as="targetPoint" />
          </mxGeometry>
        </mxCell>
        <mxCell id="7OB6KW-R-vqI7Hbg_jRt-3" value="" style="endArrow=none;html=1;rounded=0;strokeColor=#007FFF;" parent="1" edge="1">
          <mxGeometry width="50" height="50" relative="1" as="geometry">
            <mxPoint x="375" y="370" as="sourcePoint" />
            <mxPoint x="425" y="320" as="targetPoint" />
          </mxGeometry>
        </mxCell>
        <mxCell id="7OB6KW-R-vqI7Hbg_jRt-23" value="" style="endArrow=none;html=1;rounded=0;" parent="1" edge="1">
          <mxGeometry width="50" height="50" relative="1" as="geometry">
            <mxPoint x="370" y="493" as="sourcePoint" />
            <mxPoint x="430" y="493" as="targetPoint" />
          </mxGeometry>
        </mxCell>
        <mxCell id="7OB6KW-R-vqI7Hbg_jRt-24" value="$$\text{source}$$" style="text;html=1;align=center;verticalAlign=middle;resizable=0;points=[];autosize=1;strokeColor=none;fillColor=none;fontColor=#FF0000;" parent="1" vertex="1">
          <mxGeometry x="150" y="330.4" width="120" height="30" as="geometry" />
        </mxCell>
        <mxCell id="7OB6KW-R-vqI7Hbg_jRt-25" value="$$\text{mirror}$$" style="text;html=1;align=center;verticalAlign=middle;resizable=0;points=[];autosize=1;strokeColor=none;fillColor=none;fontColor=#000000;" parent="1" vertex="1">
          <mxGeometry x="345.9" y="165" width="110" height="30" as="geometry" />
        </mxCell>
        <mxCell id="7OB6KW-R-vqI7Hbg_jRt-26" value="$$\text{mirror}$$" style="text;html=1;align=center;verticalAlign=middle;resizable=0;points=[];autosize=1;strokeColor=none;fillColor=none;fontColor=#000000;rotation=90;" parent="1" vertex="1">
          <mxGeometry x="510" y="327.5" width="110" height="30" as="geometry" />
        </mxCell>
        <mxCell id="7OB6KW-R-vqI7Hbg_jRt-27" value="$$\text{detector}$$" style="text;html=1;align=center;verticalAlign=middle;resizable=0;points=[];autosize=1;strokeColor=none;fillColor=none;fontColor=#000000;" parent="1" vertex="1">
          <mxGeometry x="339.9" y="490" width="120" height="30" as="geometry" />
        </mxCell>
        <mxCell id="7OB6KW-R-vqI7Hbg_jRt-28" value="" style="endArrow=classic;startArrow=classic;html=1;rounded=0;" parent="1" edge="1">
          <mxGeometry width="50" height="50" relative="1" as="geometry">
            <mxPoint x="360" y="342.5" as="sourcePoint" />
            <mxPoint x="360" y="192.5" as="targetPoint" />
          </mxGeometry>
        </mxCell>
        <mxCell id="7OB6KW-R-vqI7Hbg_jRt-29" value="$$\ell$$" style="text;html=1;align=center;verticalAlign=middle;resizable=0;points=[];autosize=1;strokeColor=none;fillColor=none;" parent="1" vertex="1">
          <mxGeometry x="295" y="250" width="70" height="30" as="geometry" />
        </mxCell>
        <mxCell id="7OB6KW-R-vqI7Hbg_jRt-30" value="$$A$$" style="text;html=1;align=center;verticalAlign=middle;resizable=0;points=[];autosize=1;strokeColor=none;fillColor=none;" parent="1" vertex="1">
          <mxGeometry x="414" y="190" width="60" height="30" as="geometry" />
        </mxCell>
        <mxCell id="7OB6KW-R-vqI7Hbg_jRt-31" value="$$B$$" style="text;html=1;align=center;verticalAlign=middle;resizable=0;points=[];autosize=1;strokeColor=none;fillColor=none;" parent="1" vertex="1">
          <mxGeometry x="500" y="357.5" width="60" height="30" as="geometry" />
        </mxCell>
        <mxCell id="7OB6KW-R-vqI7Hbg_jRt-32" value="" style="triangle;whiteSpace=wrap;html=1;fillColor=#FF9933;rotation=-180;strokeColor=#FF9933;" parent="1" vertex="1">
          <mxGeometry x="527.5" y="342.9" width="5" height="5" as="geometry" />
        </mxCell>
        <mxCell id="7OB6KW-R-vqI7Hbg_jRt-33" value="" style="triangle;whiteSpace=wrap;html=1;fillColor=#FF9933;rotation=90;strokeColor=#FF9933;" parent="1" vertex="1">
          <mxGeometry x="395.6" y="212" width="5" height="5" as="geometry" />
        </mxCell>
        <mxCell id="7OB6KW-R-vqI7Hbg_jRt-35" value="" style="endArrow=none;html=1;rounded=0;strokeColor=#FF8000;" parent="1" target="7OB6KW-R-vqI7Hbg_jRt-34" edge="1">
          <mxGeometry width="50" height="50" relative="1" as="geometry">
            <mxPoint x="399.79999999999995" y="493" as="sourcePoint" />
            <mxPoint x="399.4" y="345.5" as="targetPoint" />
          </mxGeometry>
        </mxCell>
        <mxCell id="7OB6KW-R-vqI7Hbg_jRt-34" value="" style="triangle;whiteSpace=wrap;html=1;fillColor=#FF9933;rotation=90;strokeColor=#FF9933;" parent="1" vertex="1">
          <mxGeometry x="397.40000000000003" y="370" width="5" height="5" as="geometry" />
        </mxCell>
        <mxCell id="7OB6KW-R-vqI7Hbg_jRt-36" value="" style="endArrow=none;html=1;rounded=0;" parent="1" edge="1">
          <mxGeometry width="50" height="50" relative="1" as="geometry">
            <mxPoint x="200" y="460" as="sourcePoint" />
            <mxPoint x="300" y="460" as="targetPoint" />
          </mxGeometry>
        </mxCell>
        <mxCell id="7OB6KW-R-vqI7Hbg_jRt-39" value="" style="endArrow=classic;html=1;rounded=0;" parent="1" edge="1">
          <mxGeometry width="50" height="50" relative="1" as="geometry">
            <mxPoint x="200" y="460" as="sourcePoint" />
            <mxPoint x="270" y="430" as="targetPoint" />
          </mxGeometry>
        </mxCell>
        <mxCell id="7OB6KW-R-vqI7Hbg_jRt-42" value="" style="endArrow=none;html=1;rounded=0;edgeStyle=orthogonalEdgeStyle;curved=1;" parent="1" edge="1">
          <mxGeometry width="50" height="50" relative="1" as="geometry">
            <mxPoint x="223" y="450" as="sourcePoint" />
            <mxPoint x="233" y="460" as="targetPoint" />
          </mxGeometry>
        </mxCell>
        <mxCell id="7OB6KW-R-vqI7Hbg_jRt-43" value="$$\theta$$" style="text;html=1;align=center;verticalAlign=middle;resizable=0;points=[];autosize=1;strokeColor=none;fillColor=none;" parent="1" vertex="1">
          <mxGeometry x="200" y="438" width="80" height="30" as="geometry" />
        </mxCell>
      </root>
    </mxGraphModel>
  </diagram>
</mxfile>
